<svg height="1875" viewBox="0 0 2500 1875" width="2500" xmlns="http://www.w3.org/2000/svg" xmlns:xlink="http://www.w3.org/1999/xlink"><clipPath id="a"><path d="m0 2000h2000v-2000h-2000z"/></clipPath><clipPath id="b"><path d="m367.878 1173.662c-37.999-8.212-76.64-13.74-115.206-18.921-22.583-3.033-45.562-3.118-69.598-4.606-.172-79.483-2.33-158.26 9.476-236.422 2.991-19.802 7.3-39.116 13.395-57.721-18.542-13.288-31.539-41.568-32.709-61.191-1.565-26.275 11.584-52.946 33.381-67.702 17.509-11.854 39.412-15.95 60.53-14.87 13 .664 26.494 3.6 37.687 9.931 29.016-21.721 61.174-39.092 94.43-54.908 2.501-1.19 6.897-.679 9.405.775 31.335 18.163 63.833 34.722 93.401 55.445 62.298 43.665 97.101 105.25 109.604 179.892 13.589 81.127 11.454 162.955 11.087 244.707-.002.659-.588 1.316-1.135 2.461-1.174.185-2.619.617-4.06.609-52.605-.275-104.227 7.846-155.691 17.74-20.93 4.024-41.716 7.967-62.93 7.968-10.234 0-20.567-.918-31.067-3.187"/></clipPath><clipPath id="c"><path d="m0 2000h2000v-2000h-2000z"/></clipPath><path d="m-37.212452-9.3031h2557.5103v1911.3667h-2557.5103z" fill="#fff"/><g clip-path="url(#a)" fill="#0071bc" transform="matrix(1.25 0 0 -1.25 0 2187.2358)"><path d="m0 0-25.366-24.183c-17.257 18.239-36.673 27.359-58.242 27.359-18.206 0-33.541-6.223-46.01-18.671-12.467-12.449-18.7-27.792-18.7-46.033 0-12.707 2.76-23.988 8.279-33.843 5.524-9.854 13.332-17.591 23.429-23.21 10.094-5.618 21.313-8.428 33.65-8.428 10.525 0 20.146 1.966 28.86 5.9 8.715 3.934 18.29 11.085 28.734 21.459l24.589-25.658c-14.077-13.74-27.376-23.265-39.896-28.577-12.524-5.311-26.816-7.968-42.879-7.968-29.621 0-53.866 9.391-72.734 28.173-18.869 18.782-28.305 42.855-28.305 72.218 0 18.997 4.296 35.88 12.889 50.648 8.592 14.767 20.899 26.64 36.919 35.623 16.018 8.981 33.268 13.471 51.751 13.471 15.715 0 30.849-3.32 45.402-9.957 14.55-6.639 27.094-16.082 37.63-28.323" transform="translate(873.7168 1070.4595)"/><path d="m0 0c-17.636 0-32.463-6.133-44.477-18.393-12.017-12.263-18.023-27.851-18.023-46.762 0-21.074 7.562-37.741 22.69-50.003 11.758-9.586 25.244-14.378 40.458-14.378 17.201 0 31.854 6.217 43.956 18.653 12.105 12.437 18.156 27.764 18.156 45.986 0 18.134-6.095 33.486-18.283 46.049-12.19 12.565-27.018 18.848-44.477 18.848m.388 35.494c26.959 0 50.142-9.761 69.543-29.275 19.4-19.518 29.099-43.31 29.099-71.374 0-27.809-9.572-51.342-28.711-70.6-19.142-19.258-42.364-28.885-69.671-28.885-28.604 0-52.367 9.888-71.293 29.664-18.923 19.773-28.386 43.265-28.386 70.466 0 18.221 4.406 34.977 13.221 50.261 8.813 15.287 20.935 27.398 36.359 36.336s32.036 13.407 49.839 13.407" transform="translate(995.0278 1073.2461)"/><path d="m0 0h36.271v-155.962h52.85v-34.587h-89.121z" transform="translate(1128.2568 1103.9478)"/><path d="m0 0h36.271v-155.962h52.85v-34.587h-89.121z" transform="translate(1244.9688 1103.9478)"/><path d="m0 0h104.02v-35.494h-68.008v-34.458h68.008v-34.843h-68.008v-50.132h68.008v-35.622h-104.02z" transform="translate(1361.8105 1103.9478)"/><path d="m0 0-25.541-25.259c-16.164 17.098-35.005 25.647-56.527 25.647-18.757 0-34.466-6.217-47.127-18.653-12.664-12.436-18.994-27.548-18.994-45.338 0-18.395 6.57-33.982 19.709-46.763 13.139-12.78 29.35-19.172 48.628-19.172 12.535 0 23.105 2.635 31.706 7.902 8.603 5.266 15.54 13.515 20.813 24.741h-55.182v34.069h95.857l.261-8.031c0-16.666-4.321-32.472-12.956-47.412-8.636-14.939-19.819-26.339-33.549-34.197-13.732-7.857-29.838-11.786-48.317-11.786-19.777 0-37.417 4.296-52.917 12.887-15.501 8.594-27.764 20.835-36.787 36.723-9.026 15.89-13.537 33.034-13.537 51.429 0 25.214 8.333 47.15 24.999 65.803 19.775 22.194 45.511 33.291 77.204 33.291 16.582 0 32.082-3.065 46.505-9.196 12.178-5.182 24.095-14.079 35.752-26.685" transform="translate(1675.5498 1072.8584)"/><path d="m0 0h104.021v-35.494h-68.008v-34.458h68.008v-34.843h-68.008v-50.132h68.008v-35.622h-104.021z" transform="translate(1722.5703 1103.9478)"/></g><g clip-path="url(#b)" fill="#0071bc" transform="matrix(1.25 0 0 -1.25 -2 2185.2358)"><path d="m0 0c-6.591-1.166-13.094.175-17.823 6.404-5.048 6.649-10.848 12.725-16.261 19.101-.907 1.068-1.516 2.389-2.263 3.592 7.414-5.209 14.151-10.801 20.254-17.017 5.41-5.509 11.679-6.683 18.785-5.613 17.995 2.71 35.974 5.534 53.977 8.186 3.397.501 5.5 1.937 7.207 5.065 12.908 23.634 26.023 47.153 39.076 70.708 3.858 6.963.738 12.568-7.327 12.821-6.183.194-12.377.039-18.809.039 7.504 31.828 4.809 59.822-17.277 84.056 4.87-2.936 9.733-5.987 13.343-10.129 16.806-19.285 19.718-41.969 14.466-66.138 10.723-1.6 11.186-1.5 18.295 3.687 4.465 3.259 11.18 3.537 14.127-.92 3.588-5.429 8.397-5.204 13.464-5.485 6.124-.337 12.254-.713 18.381-.704 1.371.002 3.658 1.285 3.972 2.411 4.804 17.188 5.148 34.122-4.114 50.151-.912 1.578-2.723 3.421-4.349 3.68-14.217 2.259-28.486 4.186-42.741 6.212-.158-.509-.317-1.019-.475-1.528 3.165-1.142 6.259-2.589 9.511-3.367 8.664-2.073 17.433-3.718 26.075-5.869 1.865-.465 4.188-1.983 4.923-3.629 5.433-12.179 7.483-24.858 4.183-38.02-.39-1.552-1.685-2.88-2.561-4.311l-1.645.611c0 3.099.167 6.208-.033 9.294-.501 7.736-2.538 9.66-10.143 10.275-9.815.794-19.62 1.715-29.434 2.52-4.713.386-8.156 2.184-9.149 7.88 10.839-1.224 21.364-2.412 32.588-3.68-2.234 8.845-7.59 13.317-14.722 15.853-5.764 2.049-11.808 3.337-17.501 5.546-2.218.86-4.483 2.975-5.584 5.109-5.778 11.191-13.01 20.858-25.319 25.346-2.996 1.092-3.297 2.802-3.283 5.418.078 13.941.265 27.889-.089 41.822-.121 4.75 1.981 6.791 5.941 7.88 1.785.492 3.628.796 5.459 1.099 4.492.745 6.746-.391 6.597-5.747-.366-13.188.268-26.41-.288-39.585-.261-6.178 1.885-9.567 8.141-11.683v54.047c7.883-2.359 7.885-2.359 7.885-9.53.002-13.384-.038-26.769.05-40.152.011-1.73.106-4.03 1.152-5.078 3.428-3.433 6.621-6.958 12.486-7.017 6.436-.065 12.849-1.784 19.284-2.694 6.828-.965 13.671-1.826 20.507-2.732.199.708.398 1.417.597 2.125-7.028 2.471-14.056 4.941-21.083 7.412.043.217.085.435.128.653h15.868c0 8.575-.135 16.701.04 24.821.155 7.198 4.973 11.178 11.752 9.655 5.16-1.159 10.051-3.944 10.508-9.465.75-9.059.203-18.226.203-27.53-5.288 2.023-10.112 5.816-16.175 3.194 1.213-1.344 2.679-1.838 4.048-2.522 3.469-1.734 7.696-2.815 10.167-5.496 4.814-5.225 10.579-7.066 17.216-7.869 10.388-1.259 20.74-2.815 31.106-4.245.189.701.377 1.402.565 2.103-6.72 2.15-13.442 4.299-20.163 6.448.009.317.018.634.027.951h14.959c0 8.478-.14 16.257.04 24.029.173 7.48 5.313 11.181 11.96 7.82 3.414-1.727 7.426-5.678 7.918-9.092 1.16-8.053.372-16.387.372-24.168-4.654 1.339-9.246 2.66-13.838 3.982-.157-.569-.314-1.138-.471-1.707 4.741-3.336 9.335-6.913 14.275-9.92 3.072-1.869 6.554-3.585 10.049-4.147 15.766-2.536 31.631-4.46 47.408-6.936 20.302-3.184 36.45-20.93 37.385-41.429.377-8.248-.66-16.509-8.217-23.058 5.521 26.369.622 47.338-11.248 49.487 1.824-3.451 3.863-6.762 5.385-10.298 3.752-8.716 1.339-12.348-8.092-11.755-19.101 1.202-38.184 2.676-57.271 4.083-10.877.801-21.747 1.692-32.216 2.51-2.147-7.211-4.12-13.839-6.131-20.594 28.9-1.474 57.666-2.878 86.42-4.482 3.731-.208 7.405-1.45 11.106-2.213-.058-.461-.115-.921-.173-1.381-2.311 0-4.623-.038-6.934.006-55.383 1.034-110.766 2.044-166.147 3.186-4.101.085-7.471-.008-9.718-4.257-.823-1.555-3.318-2.178-4.945-3.368-1.808-1.324-4.144-2.457-5.14-4.28-12.47-22.813-24.745-45.733-37.038-68.642-.631-1.176-.975-2.505-1.64-4.258 15.121 1.901 29.509 3.71 44.938 5.649-.977-1.636-1.049-1.913-1.168-1.934-38.513-7.147-77.001-14.432-115.571-21.253m76.292-44.952c.139 7.028 1.332 9.299 5.46 10.037-3.648-11.894-1.755-22.278 8.894-31.035-9.047 2.107-14.559 10.595-14.354 20.998m23.413-20.147c-7.306.36-13.531 6.357-15.291 14.733-1.918 9.129 1.705 18.656 8.657 22.219 1.912-5.45 3.791-10.872 5.72-16.276 1.527-4.279 4.087-6.056 8.667-3.323-1.678 1.044-3.163 1.969-5.131 3.194 2.359 1.586 4.26 2.864 6.225 4.185-1.621 5.197-3.172 10.167-4.886 15.661 11.793-3.51 17.188-14.913 13.485-26.702-2.741-8.727-9.561-14.078-17.446-13.691m30.078 141.945c3.785 1.149 7.566 3.283 11.355 3.3 51.683.219 103.368.148 155.051.13 1.502 0 3.003-.203 4.504-.312l-.055-2.332c-56.756-2.043-113.573-1.534-170.346-2.792-.17.669-.339 1.337-.509 2.006m19.255-16.801c-19.731-.809-19.739-.628-35.361 5.429h107.781l-.179-1.929c-24.08-1.182-48.154-2.513-72.241-3.5m-54.514-61.209c2.302-.307 4.73-.377 7.01.002 5.308.882 10.554 2.13 15.837 3.177 10.077 1.998 13.408 5.964 13.406 16.046-.001 4.461-.054 8.924.013 13.385.141 9.439 6.715 16.138 16.099 16.284 7.249.113 14.519.316 21.745-.109 3.385-.199 6.699-1.749 10.027-2.751 4.166-1.255 8.294-2.64 12.474-3.846 3.251-.938 6.555-1.691 9.836-2.526-.142-.949-.285-1.897-.428-2.847-6.648 0-13.297-.011-19.946.004-3.616.009-6.655-1.51-6.779-5.176-.343-10.121-.119-20.261-.119-30.76 7.13.928 13.548 1.923 20.001 2.543 3.756.36 5.022 2 4.858 5.72-.264 6.041-.071 12.103-.071 19.008 4.844-3.09 4.823-6.941 4.805-10.806-.02-3.989-.005-7.977-.005-12.903 5.481 2.747 9.716 5.688 14.411 7.069 13.363 3.929 17.709 12.259 16.131 25.929-.991 8.576-1.228 16.624-8.951 22.541 3.042-.366 6.379-.551 8.261-2.301 3.47-3.23 6.086-7.376 9.618-11.851.182 0 1.674.123 3.139-.02 11.996-1.161 24.205 6.429 36.185-1.143 1.902-1.203 5.463.008 8.216.394 7.763 1.09 15.504 2.331 23.347 3.527-5.05 12.298-1.024 22.468 9.607 23.038 8.272.444 16.645-.924 24.965-1.601.812-.066 1.559-.938 3.751-2.343h-15.15l-.942-1.44c2.713-2.899 4.935-6.98 8.276-8.372 3.495-1.456 8.067-.325 12.709-.325-2.555-6-7.413-4.69-11.33-5.267-3.848-.567-7.954-.343-8.981-6.003 5.627.689 11.115 1.245 16.565 2.056 7.518 1.118 11.834 8.745 8.878 15.752-.866 2.054-2.373 3.836-3.587 5.742.387.343.774.687 1.161 1.029 2.094-2.302 5.428-4.337 5.999-6.969.924-4.262.034-8.918-.12-14.456 2.6 1.479 6.846 2.526 8.641 5.212 3.4 5.084 1.237 10.427-3.34 15.6 8.299-4.136 9.221-6.826 7.037-18.341 2.309-1.084 4.683-2.198 8.598-4.036-7.381-1.239-13.023-3.003-18.649-2.951-9.906.092-14.649-4.455-16.211-13.893-.578-3.488-1.569-6.193.787-9.712 3.715-5.547 3.894-11.951.879-18.081-3.629-7.379-11.689-8.223-16.661-1.674-4.52 5.951-4.864 12.567-2.585 19.579.5 1.538.464 4.171-.492 5.102-4.106 4.002-8.647 7.557-13.086 11.323-3.628-6.967-7.918-10.156-12.566-7.417-6.958 4.1-13.509 1.922-20.246.954-2.346-.337-5.024-1.318-6.688-2.907-5.405-5.162-9.88-5.985-16.652-2.882-1.681.769-4.307.874-5.945.105-8.235-3.865-16.287-8.119-24.402-12.24-8.775-4.458-17.572-8.873-26.289-13.445-1.061-.556-1.677-1.964-2.499-2.978 1.404-.045 3.007-.554 4.179-.054 4.242 1.813 8.339 3.965 12.487 5.987 5.455-11.244 2.581-28.747-5.917-37.164-4.042-4.003-8.826-6.196-14.604-5.315-6.709 1.023-11.35 5.144-15.126 10.495-2.182 3.094-2.235 3.058-6.601.534 4.068-4.334 7.964-8.483 11.992-12.773-6.19.49-10.143 4.315-12.978 9.22-1.792 3.1-3.512 3.511-6.677 2.301-6.924-2.647-13.892-5.29-21.036-7.211-3.965-1.065-8.516-1.592-12.465-.758-10.317 2.176-17.508 13.404-17.621 26.172-.027 3.036-.004 6.073-.004 9.064-.394.065-.589.152-.759.117-4.909-1.012-9.813-2.046-14.723-3.055-5.758-1.184-8.683-6.079-6.874-11.693 1.934-6.007 4.098-11.943 5.853-18.001.414-1.432-.408-3.223-.661-4.85-.613.068-1.225.136-1.837.204-2.422 6.983-4.675 14.034-7.376 20.907-.746 1.899-2.54 3.808-4.353 4.78-4.103 2.202-5.811 5.357-4.417 9.624m144.148-9.291c4.658-5.048 9.317-10.096 13.693-14.838-5.652-.245-11.737 5.274-13.693 14.838m12.738-8.752c-6.216 5.594-9.249 12.902-10.745 20.906-1.583 8.466-1.261 8.937 6.437 12.746 1.995.987 4.088 1.813 5.974 2.976 3.007 1.857 5.498 1.741 7.579-1.277-3.312-6.847-2.848-11.943 1.546-14.399 3.47-1.939 6.604-1.608 8.911 2.43-1.462.142-3.034-.176-3.587.433-1.947 2.14-4.508 4.399-5.044 6.985-.782 3.765 2.765 3.943 5.631 4.284 4.767.566 9.509 1.34 14.962 2.127 3.51-12.586 2.871-24.094-4.566-34.5-6.904-9.66-18.269-10.653-27.098-2.711m38.334 25.333c3.677-6.049 7.353-12.097 10.723-17.642-6.126 1.106-11.323 7.875-10.723 17.642m11.854-12.546c-3.162 3.913-5.508 8.835-7.002 13.677-3.615 11.713-2.963 12.359 9.197 14.212 1.049.16 2.104.289 1.915.263 2.487-3.592 4.222-6.685 6.611-9.142.605-.622 3.296.784 4.61 1.144-2.652 2.826-4.854 5.172-7.056 7.517.371.528.742 1.054 1.113 1.581 5.372 1.039 10.744 2.078 16.962 3.282 1.768-11.473 1.834-21.883-4.515-31.269-5.887-8.702-15.235-9.435-21.835-1.265m72.162 29.942c.21 6.894 4.56 12.228 9.853 12.082 5.717-.159 10.801-6.933 10.675-14.224-.115-6.717-4.464-12.251-9.684-12.324-5.967-.084-11.079 6.735-10.844 14.466m-2.922 100.818c-5.081.661-9.446 1.229-14.058 1.829v43.411c3.846-.892 7.315-1.497 10.635-2.565 1.311-.422 3.259-1.858 3.277-2.859.22-13.092.146-26.189.146-39.816m7.145-.593v40.842c3.915-1.018 7.324-1.742 10.598-2.859.932-.319 2.091-1.774 2.102-2.72.142-11.984.093-23.97.093-36.619-4.676.496-8.635.916-12.793 1.356m8.08-38.964h-40.908v85.436l1.61.035c.718-27.252 1.435-54.503 2.162-82.099 12.643-.676 24.81-1.328 36.978-1.978.052-.465.105-.93.158-1.394m8.029 93.901c-1.018 0-1.711-.132-2.335.019-15.119 3.677-30.238 7.353-45.33 11.138-1.342.336-2.504 1.401-3.743 2.139-5.657 3.37-11.17 7.024-17.023 10.01-3.367 1.718-7.284 2.357-12.065 3.823 21.87 1.405 65.593-13.494 80.496-27.129m-73.52 9.515v-12.813h-31.84c0 3.563-.21 6.867.127 10.114.102.981 1.706 2.563 2.648 2.582 9.598.192 19.202.117 29.065.117m-36.898-12.854h-28.947v12.496h28.947zm-69.01 44.942c-8.901-2.091-10.881-8.211-10.218-16.074.233-2.756-.235-5.58.085-8.318.571-4.863-1.615-6.984-6.535-7.417 0 6.371-.052 12.466.012 18.559.104 9.874 6.295 15.077 16.656 13.25m-62.708 10.248c-9.234-3.235-10.874-5.553-10.881-15.375-.002-2.967-.289-5.968.064-8.892.587-4.852-1.1-7.691-6.781-8.334 0 1.995-.003 3.654 0 5.313.009 5.377-.194 10.765.078 16.128.474 9.336 10.372 15.538 17.52 11.16m-43.401 19.119c-.382 3.646-.765 7.291-1.148 10.937.625.154 1.251.308 1.876.462 3.858-3.255 1.58-7.325 1.671-11.081-.8-.106-1.599-.212-2.399-.318m-25.456 8.517c-5.404-1.709-10.39-3.286-15.366-4.865-.849 9.456 3.835 13.353 15.366 12.535zm-19.579-168.328c-19.826-23.408-51.53-23.084-70.88.725-20.117 24.754-20.32 64.283-.284 89.033 9.208 11.373 20.901 18.228 35.715 18.402 14.803-.098 26.309-6.545 35.52-17.393 20.956-24.679 20.868-66.045-.071-90.767m-15.251 122.451c-3.827-4.839-6.566-5.767-11.584-4.445 12.707 10.755 13.698 20.591 3.241 35.438 6.96.592 9.342-4.101 11.341-8.604 3.521-7.93 2.398-15.565-2.998-22.389m-8.095 19.844c-3.078.157-7.578 1.711-9.368.153-2.417-2.105-3.874-6.654-3.718-10.062.24-5.249 4.239-7.716 10.027-6.944-5.505-6.47-12.373-6.793-17.448-1.014-4.974 5.662-5.771 12.278-3.271 19.26 2.197 6.14 7.667 9.94 13.017 9.31 5.715-.673 9.852-5.199 10.761-10.703m-94.693-275.363c3.921-14.125 8.335-28.115 12.599-42.143 1.927-6.338 11.222-11.426 17.559-9.717 33.152 8.939 66.293 17.912 99.486 26.697 2.705.715 5.765.093 8.66.093.099-.711.198-1.423.297-2.134-26.863-7.806-53.725-15.612-80.587-23.417.056-.33.114-.658.171-.986 8.973 1.348 18.102 2.049 26.892 4.159 32.103 7.708 64.248 15.316 96.096 23.993 90.635 24.693 181.162 49.789 271.688 74.881.241 14.878.58 29.753.828 44.631-.068.007-.143.01-.21.018v38.017c-.678 18.579-1.733 37.249-.013 55.644-.048.058-.096.118-.146.172.07.139.14.277.209.416.14 1.445.287 2.89.463 4.332.158 1.288.514 2.523 1.049 3.637-1.676 1.22-1.774 3.068-.98 5.722 1.903.357 3.844.721 5.712 1.071 2.213 11.368-.124 18.323-9.392 23.306-22.171 11.921-45.086 22.707-70.531 24.531-27.858 1.996-55.118-2.046-81.299-13.908-.11 1.61-.191 3.351-.356 5.083-.785 8.255-3.947 14.918-11.783 18.923-1.559.797-2.674 3.115-3.293 4.966-1.547 4.625-9.103 9.206-13.271 7.059-2.117-1.09-3.277-4.039-5.407-6.859-10.64-1.696-15.481-7.299-15.945-20.208-.253-7.026-.045-14.069-.045-21.646-4.432.906-8.019 1.641-12.1 2.476 0 7.269-.016 14.304.004 21.339.029 10.542-2.675 19.472-13.435 24.085-1.074.46-1.695 2.519-2.077 3.956-1.484 5.57-8.485 10.29-13.653 8.134-2.413-1.006-3.816-4.437-6.119-7.322-10.024-.8-15.863-7.239-16.322-19.6-.282-7.575-.053-15.168-.053-23.493-6.509 1.076-12.166 1.84-17.714 3.084-.999.224-2.2 2.417-2.215 3.714-.16 13.57-.141 27.143-.024 40.714.011 1.266.693 2.969 1.651 3.712 5.982 4.643 5.617 17.736-.982 21.293-12.278 6.616-25.143 9.251-38.514 3.531-8.116-3.471-10.199-7.716-8.911-16.252.15-.988.639-2.122 1.345-2.795 3.356-3.2 3.402-3.152 2.293-8.646-10.131 2.088-20.262 4.191-30.4 6.261-16.263 3.32-27.6-6.141-27.198-22.677.236-9.725 5.443-15.77 16.836-18.771-4.017-.891-7.327-1.433-10.523-2.366-17.242-5.032-28.609-16.814-36.197-32.49-14.808-30.591-8.492-69.991 14.319-91.556 1.108-1.049 1.544-4.038.898-5.512-4.176-9.519-8.537-18.973-13.335-28.188-1.058-2.033-3.933-3.595-6.298-4.353-3.098-.993-4.922-2.289-5.993-5.593-5.724-17.656-11.838-35.185-17.563-52.841-.879-2.71-.443-5.845-.615-8.785.65-.119 1.3-.237 1.95-.356 5.867 17.466 11.734 34.93 17.602 52.396.629.03 1.258.058 1.887.087.165-2.251 1.03-4.727.386-6.716-5.214-16.065-10.368-32.167-16.291-47.976-2.334-6.229-.432-11 2.059-17.315 6.893 21.163 13.431 41.24 20.029 61.496 3.986-1.595 3.134-4.129 2.211-6.919-5.939-17.977-11.547-36.068-17.815-53.928-2.151-6.129-2.249-11.414 2.204-17.612 7.645 22.501 15.097 44.434 22.58 66.457 5.316-3.674 5.474-4.049 3.606-9.373-7.131-20.316-14.283-40.626-21.418-60.94-.672-1.913-1.29-3.846-2.153-6.423 3.218-1.574 6.309-3.087 9.98-4.883.87 2.168 1.728 4.099 2.426 6.084 7.392 21.012 14.895 41.985 22.017 63.087 1.486 4.406 3.624 6.465 8.955 5.937-8.062-24.088-16.043-47.931-24.049-71.848 8.564.019 12.058 2.428 14.71 9.926 7.242 20.475 14.574 40.917 21.662 61.445 1.232 3.572 2.948 5.303 7.472 4.457-7.852-23.611-15.659-47.089-23.787-71.534 4.755 1.373 8.893 2.214 12.692 3.843 1.474.631 2.635 2.905 3.176 4.666 6.271 20.403 12.571 40.803 18.429 61.327 1.339 4.691 3.603 6.439 9.015 6.063-7.084-23.355-14.077-46.414-21.374-70.47 5.058 1.436 9.213 2.272 13.043 3.882 1.448.609 2.647 2.872 3.108 4.607 5.335 20.092 10.598 40.204 15.645 60.37 1.019 4.071 2.787 6.168 7.751 5.406-5.466-22.305-10.911-44.521-16.385-66.857 10.129.042 11.287.984 13.007 9.71 3.629 18.396 7.44 36.76 10.856 55.195.736 3.969 2.368 5.574 7.022 5.095-1.099-6.458-2.183-12.933-3.305-19.401-2.854-16.465-5.811-32.913-8.516-49.403-.523-3.194-1.671-4.658-4.953-5.504-29.118-7.504-58.171-15.263-87.261-22.879-5.659-1.481-15.586 4.039-17.52 9.574-4.838 13.841-9.641 27.692-14.468 41.536-.116.333-.362.621-1.878.999 0-3.58-.786-7.377.137-10.7" transform="translate(257.9443 826.2744)"/><path d="m0 0c-1.453-8.03-2.762-15.262-4.202-23.218 11.256 0 22.556-.126 33.846.151 1.499.037 3.612 1.812 4.314 3.31 6.598 14.078 7.272 28.214-.596 42.096-.918 1.618-2.609 3.667-4.183 3.903-11.072 1.662-22.207 2.901-33.321 4.275-.122-.447-.244-.892-.366-1.338 1.939-.742 3.822-1.744 5.828-2.182 7.059-1.54 14.247-2.569 21.203-4.466 2.696-.735 5.887-2.73 7.163-5.072 6.049-11.099 4.795-22.511-.008-33.735-.45-1.054-1.83-1.71-3.714-3.38.233 5.255.59 9.055.509 12.847-.065 3.062-1.319 4.928-5.075 5.056-7.186.245-14.35 1.139-21.398 1.753" transform="translate(424.5112 957.3887)"/><path d="m0 0c-22.041 2.343-44.082 4.685-66.34 7.049 1.179-4.348 2.105-8.097 3.263-11.773.265-.84 1.228-1.742 2.068-2.024.571-.191 1.961.474 2.178 1.056 2.43 6.524 7.803 5.832 13.064 5.529 12.607-.727 25.211-1.52 37.826-2.082 2.645-.118 5.329.639 7.995.992-.018.418-.036.836-.054 1.253" transform="translate(531.562 974.4434)"/><path d="m0 0c4.919 5.393 10.208 7.749 16.363 4.608 5.411-2.76 5.412-8.198 5.881-13.753-6.586-.201-13.252 2.964-19.639-3.523 13.68.469 23.937-3.565 30.294-15.394 0 8.404.585 16.862-.191 25.193-.585 6.271-4.394 11.109-11.326 11.893-4.546.515-9.23 1.018-13.721.465-4.544-.559-7.38-3.689-7.661-9.489" transform="translate(393.5645 857.7764)"/><path d="m0 0c-5.184-.642-9.334-1.155-15.125-1.872 1.094-3.451 1.283-7.1 3.159-9.333 3.999-4.761 7.253-3.745 9.172 2.193.844 2.613 1.628 5.243 2.794 9.012" transform="translate(607.3286 866.7793)"/><path d="m0 0c1.25-2.384 1.896-5.736 3.867-6.962 5.063-3.152 5.939-7.053 3.552-12.875 6.909 8.069 3.427 19.031-7.419 19.837" transform="translate(581.2397 893.2012)"/><path d="m0 0c-4.178-.835-8.18-2.049-8.372-1.607-1.353 3.114-1.922 6.568-2.855 10.37-3.177-2.004-3.222-5.813-1.789-8.888 1.133-2.433 3.914-4.95 6.418-5.561 1.411-.342 3.744 3.1 6.598 5.686" transform="translate(609.0942 835.832)"/><path d="m0 0c-6.812-.935-12.231-1.678-17.703-2.428 1.029-3.538 1.139-4.042 6.23-2.924 3.654.803 9.181-1.774 11.473 5.352" transform="translate(559.2324 867.4717)"/><path d="m0 0c-2.663 1.778-5.324 3.906-8.301 5.408-1.744.88-3.992.761-6.837 1.226 4.318-7.74 9.276-9.407 15.138-6.634" transform="translate(465.1309 795.9775)"/><path d="m0 0c-6.749 1.911-8.467 6.77-7.559 13.166-.667-.099-1.334-.198-2.001-.297.338-3.446-.188-7.34 1.289-10.197 1.163-2.247 4.796-3.217 7.333-4.754.313.694.625 1.388.938 2.082" transform="translate(582.8555 874.0195)"/><path d="m0 0c-6.037.136-6.862 3.34-5.265 8.192-4.143-2.086-4.966-4.908-2.962-7.962 1.917-2.919 4.742-2.887 8.227-.23" transform="translate(533.0396 858.0527)"/><path d="m0 0c-6.282 3.51-8.475 8.367-6.151 13.823 2.16 5.073 5.894 6.23 11.312 3.724-.352 6.439-3.494 10.48-8.657 12.749-5.137 2.257-9.832.798-13.638-3.254-6.411-6.825-6.348-19.729.068-26.566 4.946-5.272 11.593-5.456 17.066-.476" transform="translate(270.0796 944.5088)"/><path d="m0 0c11.609-.158 19.623 6.913 21.509 18.226.512 3.075.523 6.3.284 9.42-.538 7.054-.761 7.124-8.681 6.344 2.737-13.607.982-25.748-13.112-33.99" transform="translate(266.936 935.6758)"/><path d="m0 0c-10.719 2.269-12.769 10.305-14.11 18.638-6.084-.541-6.892-3.287-3.658-11.361 3.269-8.158 10.323-11.174 17.768-7.277" transform="translate(517.1973 810.5889)"/><path d="m0 0c-8.556 2.092-9.607 8.941-10.707 16.702-1.581-.894-3.379-1.286-3.854-2.298-1.391-2.965 1.766-11.651 4.739-14.077 3.096-2.526 5.562-2.683 9.822-.327" transform="translate(563.4751 822.5127)"/><path d="m0 0c-.861-.096-2.66.163-3.827-.577-.874-.555-1.624-3.201-1.242-3.528 2.227-1.904 2.836-3.26-.079-5.087-.337-.212.645-2.527 1.015-3.866 6.891 1.921 4.302-2.816 4.111-6.017 1.266-.6 2.584-1.224 3.223-1.527 2.851 2.145 5.291 3.979 6.836 5.14-2.503 1.357-6.641 2.33-8.416 4.921-1.765 2.575-1.156 6.777-1.621 10.541" transform="translate(351.9077 786.376)"/><path d="m0 0c-2.75-1.872-2.52-5.102-1.122-7.889.835-1.663 3.232-3.569 4.872-3.521 1.745.051 3.427 2.28 4.418 4.277-1.895-.416-5.21-1.576-5.448-1.122-1.312 2.501-1.872 5.397-2.72 8.255" transform="translate(629.2632 850.124)"/><path d="m0 0c1.247-.022 2.741.016 4.319-.128-1.718-1.028-3.157-2.351-4.38-2.909.021 1.013.04 2.024.061 3.037" transform="translate(664.6133 850.5371)"/></g><g clip-path="url(#c)" transform="matrix(1.25 0 0 -1.25 0 2187.2358)"><path d="m0 0c-2.644 42.671-2.402 85.571-2.135 128.833 3.965.445 7.885.863 11.785 1.272.31 2.09.621 4.189.93 6.272 1.496 10.073 3.035 20.453 4.502 30.68-17.409-1.435-35.138-1.758-53.483-2.893-.173-79.483-2.33-158.261 9.476-236.423 3.59-23.767 9.073-46.833 17.274-68.813 1.582 4.74 3.159 9.505 4.692 14.235 1.989 6.135 6.248 8.204 9.735 9.322 1.571.504 2.682 1.27 2.977 1.606 2.548 4.897 5.115 10.139 7.845 16.03-1.978 7.816-3.662 15.752-5.103 23.786-13.801 21.435-17.249 50.689-8.495 76.093" fill="#ff9d27" transform="translate(221.4756 985.9717)"/><path d="m0 0c-.514.891-.076.501 0 0m36.478 34.86c-.004.66-.59 1.317-1.136 2.462-1.174.184-2.618.616-4.06.608-35.896-.187-71.334 3.538-106.576 9.065v-5.249l-10.109.473c-5.56.261-11.116.672-16.489 1.07-8.842.655-17.193 1.274-25.523 1.274-3.337 0-6.398-.1-9.357-.304-12.854-.885-24.441-6.807-34.515-17.59 5.054-.655 10.113-1.554 15.076-2.317 51.548-7.932 103.035-16.272 156.232-24.734.985-72.547 1.451-145.059-13.069-216.68-11.994-59.159-41.878-107.24-90.889-142.331-23.203-16.613-48.479-30.354-73.039-45.022-2.759-1.648-7.701-2.324-10.406-.982-19.494 9.669-38.462 20.084-56.349 31.979-15.423-3.87-30.834-7.588-46.014-11.23 31.125-24.762 66.265-43.97 102.725-61.31 2.501-1.19 6.897-.679 9.405.774 31.335 18.163 63.833 34.723 93.401 55.446 62.298 43.664 97.101 105.249 109.604 179.892 13.589 81.127 11.453 162.954 11.088 244.706" fill="#ff9d27" transform="translate(586.2842 1113.2104)"/><path d="m0 0c-10.754 0-22.567-2.017-36.112-6.166l-12.485-3.824v11.957c-6.508-.975-13.022-1.914-19.538-2.83 1.846-11.533 3.408-22.895 5.06-34.914.06-.441.122-.889.183-1.33 2.329.322 4.658.649 6.982 1.003 34.58 5.267 68.915 12.206 103.535 17.118-13.538 12.749-29.172 18.986-47.625 18.986" fill="#ff9d27" transform="translate(344.7529 1158.8882)"/><path d="m0 0c64.5 24.562 129.07 23.975 194.697-.254-1.638 7.18 3.881 14.314-5.557 16.493-22.062 5.095-43.97 11.213-66.282 14.786-38.995 6.246-76.601-2.641-113.963-13.025-9.192-2.555-12.243-6.892-8.895-18m-85.502 22.068c29.531 16.548 57.119 32.03 84.729 47.472 30.384 16.992 60.729 34.056 91.28 50.741 2.944 1.608 8.082 2.305 10.764.824 58.218-32.159 116.232-64.686 174.273-97.166.484-.271.788-.862 2.043-2.291-16.557-6.199-32.672-12.267-48.814-18.263-9.023-3.351-17.995-6.896-27.176-9.754-5.781-1.799-7.579-4.971-7.308-10.864.469-10.239.13-20.514.13-28.758-17.719.83-35.225 3.216-52.485 2.028-17.869-1.231-32.962-10.515-44.881-25.176-27.579 29.988-60.925 31.431-98.155 20.028 0 11.059-.311 21.476.122 31.862.242 5.833-1.445 9.031-7.28 10.889-10.897 3.469-21.549 7.708-33.36 12.012-.38-8.996-3.452-16.878 4.57-24.249 6.164-5.664 6.051-14.072.522-20.289-4.419-4.968-4.299-9.481-3.373-15.243 2.606-16.22 4.694-32.522 7.113-49.691h-34.547c2.343 15.884 4.7 31.492 6.926 47.12.94 6.603 2.141 12.602-3.645 18.789-6.124 6.549-3.924 14.645 2.305 20.874 7.971 7.969 2.883 17.667 3.238 26.457.083 2.068-6.887 4.728-10.866 6.571-4.448 2.061-9.184 3.502-16.125 6.077" fill="#0071bc" transform="translate(306.9146 1211.0669)"/><g fill="#ff9d27"><path d="m0 0-10.054-7.712c-5.546 7.222-12.206 12.696-19.975 16.422-7.771 3.728-16.309 5.59-25.611 5.59-10.17 0-19.586-2.441-28.253-7.322-8.665-4.885-15.382-11.44-20.148-19.675-4.767-8.233-7.149-17.492-7.149-27.776 0-15.542 5.329-28.511 15.989-38.911 10.658-10.4 24.105-15.6 40.341-15.6 17.853 0 32.789 6.99 44.806 20.972l10.054-7.626c-6.356-8.089-14.288-14.342-23.79-18.763-9.505-4.419-20.121-6.629-31.85-6.629-22.302 0-39.895 7.423-52.778 22.272-10.804 12.536-16.207 27.675-16.207 45.413 0 18.661 6.545 34.362 19.631 47.102 13.086 12.739 29.479 19.11 49.18 19.11 11.903 0 22.649-2.356 32.24-7.064 9.59-4.71 17.449-11.311 23.574-19.803" transform="translate(811.0649 835.3232)"/><path d="m0 0c-9.432 0-18.375-2.458-26.822-7.373-8.45-4.915-15.047-11.536-19.791-19.861-4.745-8.327-7.117-17.608-7.117-27.841 0-15.151 5.251-27.944 15.753-38.381 10.503-10.437 23.162-15.655 37.977-15.655 9.896 0 19.053 2.399 27.474 7.199 8.419 4.799 14.987 11.362 19.703 19.686 4.716 8.328 7.076 17.58 7.076 27.758 0 10.116-2.36 19.268-7.076 27.449-4.716 8.184-11.358 14.731-19.92 19.646-8.565 4.915-17.651 7.373-27.257 7.373m-.562 12.394c19.307 0 35.467-6.444 48.475-19.329 13.008-12.882 19.512-28.743 19.512-47.577 0-18.663-6.489-34.492-19.469-47.492-12.979-13-28.805-19.5-47.478-19.5-18.906 0-34.862 6.471-47.871 19.414-13.007 12.941-19.512 28.598-19.512 46.972 0 12.247 2.963 23.6 8.889 34.057 5.926 10.458 14.005 18.648 24.239 24.572 10.232 5.92 21.304 8.883 33.215 8.883" transform="translate(897.8999 849.7969)"/><path d="m0 0v127.483h2.772l84.846-97.723v97.723h12.566v-127.483h-2.861l-84.151 96.533v-96.533z" transform="translate(990.9785 731.5)"/><path d="m0 0h14.732c17.622 0 29.843 1.098 36.661 3.291 9.589 3.117 17.129 8.73 22.619 16.841 5.488 8.111 8.232 18.025 8.232 29.746 0 12.295-2.975 22.801-8.926 31.518-5.952 8.716-14.242 14.691-24.872 17.924-7.974 2.424-21.118 3.638-39.432 3.638h-9.014zm-12.219-12.046v127.484h26.433c19.065 0 32.901-1.533 41.512-4.594 12.362-4.332 22.025-11.845 28.989-22.532 6.961-10.689 10.443-23.431 10.443-38.219 0-12.77-2.761-24.007-8.278-33.713-5.518-9.707-12.682-16.872-21.49-21.493-8.814-4.622-21.163-6.933-37.05-6.933z" transform="translate(1134.4082 743.5459)"/><path d="m0 0h12.739v-76.958c0-9.131.173-14.821.522-17.072.634-5.028 2.107-9.232 4.419-12.611 2.31-3.379 5.864-6.211 10.66-8.493 4.794-2.284 9.618-3.424 14.472-3.424 4.217 0 8.261.896 12.132 2.688 3.871 1.79 7.108 4.273 9.707 7.452 2.6 3.178 4.507 7.021 5.721 11.527.865 3.236 1.3 9.879 1.3 19.933v76.958h12.739v-76.958c0-11.382-1.113-20.583-3.336-27.604-2.226-7.018-6.674-13.128-13.346-18.329-6.674-5.2-14.749-7.799-24.224-7.799-10.283 0-19.096 2.456-26.433 7.367-7.337 4.909-12.249 11.409-14.732 19.5-1.561 4.968-2.34 13.923-2.34 26.865z" transform="translate(1254.6982 858.9834)"/><path d="m0 0-10.054-7.712c-5.546 7.222-12.206 12.696-19.975 16.422-7.772 3.728-16.31 5.59-25.611 5.59-10.17 0-19.586-2.441-28.253-7.322-8.665-4.885-15.382-11.44-20.148-19.675-4.767-8.233-7.149-17.492-7.149-27.776 0-15.542 5.329-28.511 15.989-38.911 10.658-10.4 24.105-15.6 40.341-15.6 17.853 0 32.789 6.99 44.806 20.972l10.054-7.626c-6.356-8.089-14.288-14.342-23.79-18.763-9.506-4.419-20.121-6.629-31.85-6.629-22.302 0-39.895 7.423-52.778 22.272-10.804 12.536-16.207 27.675-16.207 45.413 0 18.661 6.545 34.362 19.631 47.102 13.086 12.739 29.479 19.11 49.181 19.11 11.902 0 22.649-2.356 32.239-7.064 9.59-4.71 17.449-11.311 23.574-19.803" transform="translate(1489.2119 835.3232)"/><path d="m0 0v12.479h69.851v-12.479h-28.426v-115.004h-13v115.004z" transform="translate(1502.126 846.5039)"/><path d="m0 0c-9.433 0-18.375-2.458-26.822-7.373-8.45-4.915-15.047-11.536-19.791-19.861-4.745-8.327-7.117-17.608-7.117-27.841 0-15.151 5.251-27.944 15.752-38.381 10.503-10.437 23.163-15.655 37.978-15.655 9.896 0 19.053 2.399 27.474 7.199 8.419 4.799 14.987 11.362 19.703 19.686 4.716 8.328 7.076 17.58 7.076 27.758 0 10.116-2.36 19.268-7.076 27.449-4.716 8.184-11.358 14.731-19.921 19.646-8.565 4.915-17.651 7.373-27.256 7.373m-.562 12.394c19.307 0 35.466-6.444 48.475-19.329 13.008-12.882 19.512-28.743 19.512-47.577 0-18.663-6.489-34.492-19.469-47.492-12.979-13-28.806-19.5-47.478-19.5-18.906 0-34.863 6.471-47.871 19.414-13.008 12.941-19.512 28.598-19.512 46.972 0 12.247 2.963 23.6 8.888 34.057 5.926 10.458 14.005 18.648 24.24 24.572 10.231 5.92 21.303 8.883 33.215 8.883" transform="translate(1651.6211 849.7969)"/><path d="m0 0v-43.332l21.96-.175c8.508 0 14.801.809 18.879 2.426 4.08 1.618 7.265 4.204 9.551 7.757 2.284 3.553 3.428 7.525 3.428 11.918 0 4.274-1.158 8.16-3.471 11.656-2.317 3.494-5.354 5.994-9.117 7.497-3.76 1.501-10.012 2.253-18.749 2.253zm-12.739 12.479h25.392c14.155 0 23.744-.58 28.772-1.737 7.568-1.734 13.721-5.45 18.459-11.148 4.736-5.698 7.106-12.713 7.106-21.044 0-6.943-1.632-13.045-4.896-18.309s-7.929-9.243-13.996-11.931c-6.066-2.69-14.444-4.066-25.133-4.122l45.847-59.192h-15.762l-45.849 59.192h-7.201v-59.192h-12.739v127.483z" transform="translate(1758.0459 846.5039)"/></g><path d="m0 0c-.04 12.335-3.744 24.765-11.096 34.529-3.656 4.867-8.312 8.934-13.532 11.735-5.237 2.78-11.096 4.112-16.792 3.78-11.536-.731-21.298-8.186-27.267-17.657-6.124-9.523-8.881-21.013-8.987-32.387.107-11.369 2.831-22.875 8.968-32.398 5.96-9.485 15.742-16.943 27.286-17.672 5.701-.328 11.565 1.004 16.8 3.793 5.22 2.804 9.881 6.871 13.53 11.745 7.352 9.767 11.048 22.198 11.09 34.532m0 0c-.109-12.309-3.078-24.807-9.915-35.356-3.42-5.229-7.735-10.031-13.121-13.575-5.327-3.577-11.705-5.928-18.384-6.281-6.665-.337-13.492 1.303-19.439 4.516-5.943 3.235-11.094 7.833-15.112 13.206-8.05 10.794-11.992 24.218-12.035 37.49.045 13.27 3.952 26.709 12.017 37.504 4.003 5.388 9.173 9.978 15.115 13.217 5.948 3.223 12.786 4.856 19.454 4.519 6.683-.357 13.067-2.708 18.393-6.294 5.385-3.548 9.705-8.349 13.118-13.585 6.837-10.552 9.798-23.052 9.909-35.361" fill="#0071bc" transform="translate(319.3979 956.9072)"/></g></svg>